HIERARCHY
ROOT Hips
{
  OFFSET 55.2351 96.0074 11.6893
  CHANNELS 6 Xposition Yposition Zposition Zrotation Xrotation Yrotation
  JOINT spine
  {
    OFFSET 0 8.1325 0.467659
    CHANNELS 3 Zrotation Xrotation Yrotation
    JOINT spine1
    {
      OFFSET 0 10.3498 0
      CHANNELS 3 Zrotation Xrotation Yrotation
      JOINT spine2
      {
        OFFSET 0 9.91699 0
        CHANNELS 3 Zrotation Xrotation Yrotation
        JOINT Neck
        {
          OFFSET 0 25.461 1.2139
          CHANNELS 3 Zrotation Xrotation Yrotation
          JOINT Head
          {
            OFFSET 0 7.69245 0
            CHANNELS 3 Zrotation Xrotation Yrotation
            End Site
            {
              OFFSET 0 18.62 -6.14063
            }
          }
        }
        JOINT RightShoulder
        {
          OFFSET -4.17575 10.7096 -0.581445
          CHANNELS 3 Zrotation Xrotation Yrotation
          JOINT RightArm
          {
            OFFSET 0 14.0466 0
            CHANNELS 3 Zrotation Xrotation Yrotation
            JOINT RightArmRoll
            {
              OFFSET 0 7.09099 0
              CHANNELS 3 Zrotation Xrotation Yrotation
              JOINT RightForeArm
              {
                OFFSET 0 20.6535 0
                CHANNELS 3 Zrotation Xrotation Yrotation
                JOINT RightForeArmRoll
                {
                  OFFSET 0 7.95718 0
                  CHANNELS 3 Zrotation Xrotation Yrotation
                  JOINT RightHand
                  {
                    OFFSET 0 15.9683 0
                    CHANNELS 3 Zrotation Xrotation Yrotation
                    End Site
                    {
                      OFFSET 0 0 0
                    }
                  }
                }
              }
            }
          }
        }
        JOINT LeftShoulder
        {
          OFFSET 4.17575 10.7096 -0.581445
          CHANNELS 3 Zrotation Xrotation Yrotation
          JOINT LeftArm
          {
            OFFSET 0 14.0466 0
            CHANNELS 3 Zrotation Xrotation Yrotation
            JOINT LeftArmRoll
            {
              OFFSET 0 7.09099 0
              CHANNELS 3 Zrotation Xrotation Yrotation
              JOINT LeftForeArm
              {
                OFFSET 0 20.6535 0
                CHANNELS 3 Zrotation Xrotation Yrotation
                JOINT LeftForeArmRoll
                {
                  OFFSET 0 7.95718 0
                  CHANNELS 3 Zrotation Xrotation Yrotation
                  JOINT LeftHand
                  {
                    OFFSET 0 15.9683 0
                    CHANNELS 3 Zrotation Xrotation Yrotation
                    End Site
                    {
                      OFFSET 0 0 0
                    }
                  }
                }
              }
            }
          }
        }
      }
    }
  }
  JOINT RightUpLeg
  {
    OFFSET -7.20834 -1.32182 -1.10884
    CHANNELS 3 Zrotation Xrotation Yrotation
    JOINT RightUpLegRoll
    {
      OFFSET 0 18.7238 0
      CHANNELS 3 Zrotation Xrotation Yrotation
      JOINT RightLeg
      {
        OFFSET 0 -23.1866 0
        CHANNELS 3 Zrotation Xrotation Yrotation
        JOINT RightLegRoll
        {
          OFFSET 0 23.2624 0
          CHANNELS 3 Zrotation Xrotation Yrotation
          JOINT RightFoot
          {
            OFFSET 0 19.3621 0
            CHANNELS 3 Zrotation Xrotation Yrotation
            JOINT RightToeBase
            {
              OFFSET 0 16.1857 0
              CHANNELS 3 Zrotation Xrotation Yrotation
              End Site
              {
                OFFSET 0.00686052 7.83863 -0.903522
              }
            }
          }
        }
      }
    }
  }
  JOINT LeftUpLeg
  {
    OFFSET 7.20834 -1.32182 -1.10884
    CHANNELS 3 Zrotation Xrotation Yrotation
    JOINT LeftUpLegRoll
    {
      OFFSET 0 18.7239 0
      CHANNELS 3 Zrotation Xrotation Yrotation
      JOINT LeftLeg
      {
        OFFSET 0 23.1865 0
        CHANNELS 3 Zrotation Xrotation Yrotation
        JOINT LeftLegRoll
        {
          OFFSET 0 23.4775 0
          CHANNELS 3 Zrotation Xrotation Yrotation
          JOINT LeftFoot
          {
            OFFSET 0 19.147 0
            CHANNELS 3 Zrotation Xrotation Yrotation
            JOINT LeftToeBase
            {
              OFFSET 0 16.1857 0
              CHANNELS 3 Zrotation Xrotation Yrotation
              End Site
              {
                OFFSET -0.0307459 7.83862 -0.903522
              }
            }
          }
        }
      }
    }
  }
}
MOTION
Frames: 12
Frame Time: 0.00208333
55.0967 96.0758 9.06094 -1.47587 -3.91984 1.69958 0.217415 -1.49087 0.0632028 0.434251 1.02104 0.0958774 0.433265 2.66608 0.088634 9.93997 1.8596 -14.8947 8.07097 8.73351 -13.2469 30.0227 -17.7866 -14.4269 49.9765 56.6852 21.0199 1.00106e-006 5.87165e-007 -4.80129e-006 -174.341 67.5386 167.045 -8.9391e-006 3.55545e-006 -3.00351 8.02965 -4.95141 0.697667 -63.6948 -6.46082 4.2284 -104.664 16.9206 -10.8118 -7.97209e-007 1.45827e-006 6.77979e-006 -8.1629 0.0646506 1.0546 8.6398e-006 -3.36313e-006 3.02568 -8.02922 -4.95144 -0.697683 173.706 1.62874 2.91431 -180 7.01558e-015 178.97 179.408 11.2672 179.547 -6.48256e-008 -1.62104e-006 0.122162 -18.3327 69.0692 20.4194 8.13649 25.2327 -3.48773 -171.183 0.921369 -2.92623 4.54188e-006 -4.6773e-006 -0.854544 -1.16036 -13.4165 0.536242 1.49666e-006 -1.14852e-006 -0.113712 18.6921 71.437 -22.5968 -8.13663 25.2348 3.48488 
55.0995 96.0748 9.05345 -1.47879 -3.92617 1.70781 0.217752 -1.48952 0.0636163 0.434584 1.02369 0.0956438 0.433606 2.66874 0.0883959 9.9662 1.8282 -14.9266 8.06027 8.75244 -13.2795 30.0146 -17.7909 -14.4327 50.015 56.7132 20.6804 1.00106e-006 5.87165e-007 -4.80129e-006 -174.291 67.2499 166.828 -8.9391e-006 3.55545e-006 -3.00351 8.02965 -4.95141 0.697667 -63.6818 -6.46832 4.23207 -104.69 16.9245 -10.8008 -7.97209e-007 1.45827e-006 6.77979e-006 -8.16498 0.0646793 1.05534 8.6398e-006 -3.36313e-006 3.02562 -8.02922 -4.95144 -0.697683 173.711 1.61901 2.91193 -180 7.01557e-015 178.969 179.409 11.2645 179.547 -6.48256e-008 -1.62104e-006 0.12247 -18.3384 69.0695 20.4203 8.13649 25.2327 -3.48773 -171.181 0.923877 -2.91852 4.54188e-006 -4.6773e-006 -0.854419 -1.14776 -13.4238 0.53972 1.49666e-006 -1.14852e-006 -0.114307 18.6896 71.4371 -22.5966 -8.13663 25.2348 3.48488 
55.0968 96.0753 9.0564 -1.48161 -3.93267 1.71605 0.218138 -1.48811 0.0640936 0.434986 1.02651 0.0955269 0.434018 2.67155 0.0882735 9.99465 1.79491 -14.9581 8.04455 8.77311 -13.3119 30.0049 -17.7968 -14.4405 50.047 56.7505 20.3755 1.00106e-006 5.87165e-007 -4.80129e-006 -174.245 66.9762 166.626 -8.9391e-006 3.55545e-006 -3.0035 8.02965 -4.95141 0.697667 -63.6693 -6.4762 4.23598 -104.717 16.9285 -10.7894 -7.97209e-007 1.45827e-006 6.77979e-006 -8.16735 0.0647082 1.05597 8.6398e-006 -3.36313e-006 3.02553 -8.02922 -4.95144 -0.697683 173.717 1.60915 2.90961 -180 7.01557e-015 178.968 179.41 11.2619 179.547 -6.48256e-008 -1.62104e-006 0.122794 -18.344 69.0699 20.4213 8.13649 25.2327 -3.48773 -171.179 0.927165 -2.90977 4.54188e-006 -4.6773e-006 -0.854278 -1.13402 -13.4327 0.543477 1.49666e-006 -1.14852e-006 -0.11508 18.6886 71.438 -22.5973 -8.13663 25.2348 3.48488 
55.098 96.0758 9.06514 -1.48432 -3.93933 1.72435 0.218559 -1.48663 0.0646286 0.435441 1.02947 0.0955319 0.434482 2.67451 0.0882724 10.0248 1.7599 -14.9894 8.02464 8.79534 -13.3441 29.994 -17.8042 -14.45 50.0734 56.7956 20.1033 1.00106e-006 5.87165e-007 -4.80129e-006 -174.204 66.7183 166.44 -8.9391e-006 3.55545e-006 -3.00349 8.02965 -4.95141 0.697667 -63.6574 -6.48439 4.24008 -104.743 16.9325 -10.7776 -7.97209e-007 1.45827e-006 6.77979e-006 -8.17001 0.0647373 1.05648 8.6398e-006 -3.36313e-006 3.0254 -8.02922 -4.95144 -0.697683 173.722 1.5992 2.90739 -180 7.01557e-015 178.968 179.41 11.2593 179.547 -6.48256e-008 -1.62104e-006 0.123131 -18.3496 69.0702 20.4223 8.13649 25.2327 -3.48773 -171.179 0.931083 -2.90032 4.54188e-006 -4.6773e-006 -0.854122 -1.11949 -13.4429 0.547425 1.49666e-006 -1.14852e-006 -0.115997 18.6891 71.4394 -22.5988 -8.13663 25.2348 3.48488 
55.0953 96.0755 9.06442 -1.4869 -3.9461 1.73277 0.219002 -1.48508 0.0652149 0.435932 1.03258 0.0956643 0.434981 2.67762 0.0883981 10.0563 1.72332 -15.0206 8.00141 8.81894 -13.3762 29.9824 -17.8126 -14.4608 50.0947 56.8472 19.8622 1.00106e-006 5.87165e-007 -4.80129e-006 -174.167 66.477 166.269 -8.9391e-006 3.55545e-006 -3.00349 8.02965 -4.95141 0.697667 -63.6459 -6.49282 4.24435 -104.768 16.9365 -10.7653 -7.97209e-007 1.45827e-006 6.77979e-006 -8.17294 0.0647666 1.05687 8.6398e-006 -3.36313e-006 3.02523 -8.02922 -4.95144 -0.697683 173.727 1.58917 2.90524 -180 7.01557e-015 178.967 179.411 11.2568 179.547 -6.48256e-008 -1.62104e-006 0.123477 -18.3551 69.0705 20.4233 8.13649 25.2327 -3.48773 -171.178 0.935481 -2.89046 4.54188e-006 -4.6773e-006 -0.853953 -1.10453 -13.4542 0.55147 1.49666e-006 -1.14852e-006 -0.117025 18.6907 71.4414 -22.6008 -8.13663 25.2348 3.48488 
55.0986 96.0554 9.05668 -1.48934 -3.95296 1.74136 0.219453 -1.48346 0.0658464 0.436442 1.03583 0.0959293 0.435499 2.68088 0.0886561 10.0886 1.68533 -15.0515 7.97571 8.84374 -13.4083 29.9704 -17.8218 -14.4725 50.1114 56.9036 19.6503 1.00106e-006 5.87165e-007 -4.80129e-006 -174.135 66.253 166.113 -8.9391e-006 3.55545e-006 -3.00348 8.02965 -4.95141 0.697667 -63.6349 -6.50142 4.24874 -104.794 16.9404 -10.7525 -7.97209e-007 1.45827e-006 6.77979e-006 -8.17613 0.0647961 1.05711 8.6398e-006 -3.36313e-006 3.02504 -8.02922 -4.95144 -0.697683 173.732 1.57908 2.90319 -180 7.01557e-015 178.966 179.412 11.2544 179.547 -6.48256e-008 -1.62104e-006 0.123829 -18.3606 69.0709 20.4244 8.13649 25.2327 -3.48773 -171.177 0.940209 -2.88052 4.54188e-006 -4.6773e-006 -0.853773 -1.08949 -13.4663 0.555524 1.49666e-006 -1.14852e-006 -0.118131 18.6934 71.4437 -22.6034 -8.13663 25.2348 3.48488 
55.1038 96.0597 9.05882 -1.49165 -3.95988 1.75016 0.219899 -1.48178 0.0665168 0.436953 1.03923 0.0963321 0.436018 2.68427 0.0890521 10.1212 1.6461 -15.0824 7.94838 8.86954 -13.4405 29.9583 -17.8315 -14.4847 50.124 56.9634 19.466 1.00106e-006 5.87165e-007 -4.80129e-006 -174.107 66.0471 165.974 -8.9391e-006 3.55545e-006 -3.00348 8.02965 -4.95141 0.697667 -63.6244 -6.51012 4.25321 -104.819 16.9441 -10.7394 -7.97209e-007 1.45827e-006 6.77979e-006 -8.17956 0.0648258 1.05722 8.6398e-006 -3.36313e-006 3.02483 -8.02922 -4.95144 -0.697683 173.737 1.56896 2.90124 -180 7.01556e-015 178.965 179.413 11.2522 179.547 -6.48256e-008 -1.62104e-006 0.124184 -18.366 69.0714 20.4255 8.13649 25.2327 -3.48773 -171.177 0.945118 -2.8708 4.54188e-006 -4.6773e-006 -0.853584 -1.07473 -13.479 0.559496 1.49666e-006 -1.14852e-006 -0.119281 18.6969 71.4464 -22.6062 -8.13663 25.2348 3.48488 
55.1065 96.0724 9.05955 -1.4938 -3.96685 1.75924 0.220326 -1.48003 0.0672199 0.437451 1.04276 0.0968782 0.43652 2.6878 0.0895916 10.1536 1.6058 -15.1131 7.92028 8.89616 -13.4728 29.9467 -17.8413 -14.497 50.1329 57.0249 19.3078 1.00106e-006 5.87165e-007 -4.80129e-006 -174.083 65.8601 165.85 -8.9391e-006 3.55545e-006 -3.00347 8.02965 -4.95141 0.697667 -63.6142 -6.51886 4.25771 -104.843 16.9478 -10.7258 -7.97209e-007 1.45827e-006 6.77979e-006 -8.18322 0.0648556 1.05717 8.6398e-006 -3.36313e-006 3.02461 -8.02922 -4.95144 -0.697683 173.742 1.55883 2.89939 -180 7.01556e-015 178.964 179.414 11.2502 179.547 -6.48256e-008 -1.62104e-006 0.124538 -18.3714 69.0719 20.4267 8.13649 25.2327 -3.48773 -171.176 0.950058 -2.86161 4.54188e-006 -4.6773e-006 -0.853388 -1.06061 -13.492 0.563293 1.49666e-006 -1.14852e-006 -0.120443 18.7009 71.4491 -22.6092 -8.13663 25.2348 3.48488 
55.1021 96.066 9.05982 -1.4958 -3.97382 1.76864 0.220722 -1.47821 0.0679494 0.437917 1.04643 0.0975728 0.43699 2.69147 0.0902802 10.1854 1.56457 -15.1438 7.89227 8.92341 -13.5053 29.9358 -17.851 -14.5091 50.1384 57.0866 19.174 1.00106e-006 5.87165e-007 -4.80129e-006 -174.064 65.6927 165.743 -8.9391e-006 3.55545e-006 -3.00346 8.02965 -4.95141 0.697667 -63.6045 -6.52756 4.26222 -104.868 16.9512 -10.7118 -7.97209e-007 1.45827e-006 6.77979e-006 -8.18709 0.0648855 1.05696 8.6398e-006 -3.36313e-006 3.02437 -8.02922 -4.95144 -0.697683 173.746 1.54871 2.89764 -180 7.01556e-015 178.964 179.414 11.2484 179.547 -6.48256e-008 -1.62104e-006 0.124888 -18.3766 69.0725 20.4279 8.13649 25.2327 -3.48773 -171.176 0.95488 -2.85326 4.54188e-006 -4.6773e-006 -0.853188 -1.04748 -13.505 0.566826 1.49666e-006 -1.14852e-006 -0.121583 18.7053 71.4518 -22.6123 -8.13663 25.2348 3.48488 
55.1002 96.0751 9.06993 -1.49763 -3.98078 1.77842 0.221073 -1.47633 0.0686992 0.438334 1.05023 0.0984213 0.437408 2.69527 0.0911234 10.2161 1.5226 -15.1746 7.86519 8.95112 -13.5381 29.9261 -17.8603 -14.5206 50.141 57.1467 19.0632 1.00106e-006 5.87165e-007 -4.80129e-006 -174.05 65.5457 165.652 -8.9391e-006 3.55545e-006 -3.00346 8.02965 -4.95141 0.697667 -63.5951 -6.53615 4.26667 -104.892 16.9543 -10.6975 -7.97209e-007 1.45827e-006 6.77979e-006 -8.19117 0.0649155 1.05659 8.6398e-006 -3.36313e-006 3.02413 -8.02922 -4.95144 -0.697683 173.75 1.53864 2.896 -180 7.01556e-015 178.963 179.415 11.2469 179.547 -6.48256e-008 -1.62104e-006 0.12523 -18.3817 69.0732 20.4291 8.13649 25.2327 -3.48773 -171.175 0.959432 -2.84607 4.54188e-006 -4.6773e-006 -0.852985 -1.03569 -13.5178 0.570004 1.49666e-006 -1.14852e-006 -0.122668 18.7099 71.4544 -22.6153 -8.13663 25.2348 3.48488 
55.104 96.0733 9.06818 -1.49928 -3.98769 1.78863 0.221364 -1.47438 0.0694631 0.438687 1.05415 0.0994289 0.437759 2.69919 0.0921268 10.2453 1.48003 -15.2053 7.83989 8.9791 -13.5713 29.918 -17.8688 -14.531 50.1408 57.2037 18.9736 1.00106e-006 5.87165e-007 -4.80129e-006 -174.041 65.4199 165.578 -8.9391e-006 3.55545e-006 -3.00345 8.02965 -4.95141 0.697667 -63.5861 -6.54457 4.27105 -104.915 16.9572 -10.6828 -7.97209e-007 1.45827e-006 6.77979e-006 -8.19543 0.0649456 1.05604 8.6398e-006 -3.36313e-006 3.02389 -8.02922 -4.95144 -0.697683 173.754 1.52862 2.89448 -180 7.01556e-015 178.962 179.416 11.2457 179.547 -6.48256e-008 -1.62104e-006 0.125561 -18.3866 69.0741 20.4304 8.13649 25.2327 -3.48773 -171.173 0.963566 -2.84035 4.54188e-006 -4.6773e-006 -0.85278 -1.02561 -13.5301 0.572736 1.49666e-006 -1.14852e-006 -0.123665 18.7145 71.4568 -22.6181 -8.13663 25.2348 3.48488 
55.1095 96.075 9.05683 -1.50075 -3.99453 1.79933 0.221584 -1.47237 0.0702347 0.438958 1.0582 0.100601 0.438025 2.70325 0.093296 10.2724 1.43702 -15.2362 7.81722 9.00715 -13.605 29.9117 -17.8763 -14.54 50.1383 57.2558 18.9038 1.00106e-006 5.87165e-007 -4.80129e-006 -174.037 65.3159 165.522 -8.9391e-006 3.55545e-006 -3.00345 8.02965 -4.95141 0.697667 -63.5773 -6.55274 4.27529 -104.938 16.9597 -10.6677 -7.97209e-007 1.45827e-006 6.77979e-006 -8.19987 0.0649758 1.0553 8.6398e-006 -3.36313e-006 3.02366 -8.02922 -4.95144 -0.697683 173.758 1.51868 2.89307 -180 7.01556e-015 178.962 179.417 11.2448 179.547 -6.48256e-008 -1.62104e-006 0.125879 -18.3914 69.0751 20.4317 8.13649 25.2327 -3.48773 -171.171 0.967132 -2.83641 4.54188e-006 -4.6773e-006 -0.852577 -1.01759 -13.5416 0.574931 1.49666e-006 -1.14852e-006 -0.124541 18.7188 71.4588 -22.6205 -8.13663 25.2348 3.48488 
